<svg width="13" height="16" viewBox="0 0 13 16" fill="none" xmlns="http://www.w3.org/2000/svg">
<path d="M9.90703 7.73266C9.91233 7.31357 10.0215 6.90267 10.2245 6.53817C10.4275 6.17367 10.7176 5.86742 11.0679 5.64791C10.8454 5.32398 10.5518 5.0574 10.2105 4.86933C9.86922 4.68127 9.4896 4.57691 9.10182 4.56455C8.27462 4.47604 7.47268 5.06907 7.05115 5.06907C6.62146 5.06907 5.97245 4.57333 5.27358 4.58799C4.82153 4.60287 4.38097 4.73686 3.99482 4.97689C3.60868 5.21693 3.29012 5.55482 3.07019 5.95765C2.11751 7.63888 2.82813 10.1097 3.74073 11.4687C4.19732 12.1342 4.73095 12.8775 5.4292 12.8512C6.11247 12.8223 6.36766 12.4071 7.19243 12.4071C8.00954 12.4071 8.24896 12.8512 8.96138 12.8344C9.69457 12.8223 10.1565 12.166 10.5971 11.4942C10.9252 11.0201 11.1776 10.496 11.3451 9.94148C10.9191 9.75785 10.5556 9.45047 10.2999 9.05768C10.0442 8.66489 9.90753 8.20406 9.90703 7.73266Z" fill="#B645EE"/>
<path d="M8.60039 3.24047C9.00507 2.78058 9.20444 2.18946 9.15617 1.59265C8.5379 1.65412 7.9668 1.93385 7.55666 2.3761C7.35612 2.59215 7.20253 2.8435 7.10467 3.11578C7.00681 3.38806 6.9666 3.67592 6.98633 3.96292C7.29557 3.96593 7.6015 3.90248 7.88108 3.77734C8.16066 3.6522 8.40661 3.46864 8.60039 3.24047Z" fill="#B645EE"/>
</svg>
