<svg width="31" height="30" viewBox="0 0 31 30" fill="none" xmlns="http://www.w3.org/2000/svg">
<rect x="0.981445" width="30" height="30" rx="15" fill="#F0DAFC"/>
<path d="M9.88757 9.13352C9.88757 8.66003 10.0459 8.2694 10.3627 7.96165C10.6794 7.65388 11.0911 7.5 11.5979 7.5C12.0956 7.5 12.4983 7.65151 12.8059 7.95455C13.1227 8.26705 13.281 8.67423 13.281 9.17614C13.281 9.63068 13.1272 10.0095 12.8195 10.3125C12.5028 10.625 12.0865 10.7812 11.5707 10.7812H11.5572C11.0594 10.7812 10.6568 10.625 10.3491 10.3125C10.0414 10 9.88757 9.607 9.88757 9.13352ZM10.064 21.5625V12.0739H13.0774V21.5625H10.064ZM14.747 21.5625H17.7604V16.2642C17.7604 15.9328 17.7966 15.6771 17.869 15.4972C17.9957 15.1752 18.188 14.9029 18.4459 14.6804C18.7038 14.4579 19.0273 14.3466 19.4164 14.3466C20.4299 14.3466 20.9367 15.0615 20.9367 16.4915V21.5625H23.9501V16.1222C23.9501 14.7206 23.6334 13.6577 22.9999 12.9332C22.3665 12.2088 21.5294 11.8466 20.4887 11.8466C19.3214 11.8466 18.4119 12.3722 17.7604 13.4233V13.4517H17.7468L17.7604 13.4233V12.0739H14.747C14.7651 12.3769 14.7742 13.3191 14.7742 14.9006C14.7742 16.482 14.7651 18.7026 14.747 21.5625Z" fill="#B645EE"/>
</svg>
