<svg width="15" height="16" viewBox="0 0 15 16" fill="none" xmlns="http://www.w3.org/2000/svg">
<path d="M6.83783 3.73962C6.83274 3.70397 6.88622 3.68106 6.91933 3.66578C6.96262 3.64796 7.01864 3.64032 7.05939 3.66324C7.06958 3.66833 7.07976 3.68106 7.07467 3.69124C7.06448 3.7218 7.01355 3.7167 6.98554 3.73198C6.96007 3.74471 6.9397 3.77526 6.90914 3.77526C6.88367 3.77781 6.84038 3.76508 6.83783 3.73962ZM7.46685 3.73198C7.49232 3.74471 7.51269 3.77526 7.54325 3.77526C7.57127 3.77526 7.61456 3.76508 7.61711 3.73707C7.6222 3.70143 7.56872 3.67851 7.53561 3.66324C7.49232 3.64541 7.43629 3.63778 7.39555 3.66069C7.38536 3.66578 7.37517 3.67851 7.38027 3.6887C7.38791 3.7218 7.43884 3.7167 7.46685 3.73198ZM12.9345 11.6299C12.9218 11.8387 12.769 11.9813 12.5805 12.0959C12.2011 12.325 11.6306 12.4981 11.2843 12.9157C10.9226 13.346 10.477 13.593 10.0542 13.6261C9.63405 13.6592 9.23932 13.4657 9.02795 13.0405V13.0379C8.99993 12.9845 8.97956 12.9259 8.96428 12.8673C8.41675 12.8979 7.94053 12.7324 7.56108 12.7629C7.00082 12.7935 6.64938 12.9284 6.33105 12.931C6.20881 13.2009 5.96688 13.3791 5.67147 13.4453C5.26401 13.5395 4.75213 13.4453 4.2479 13.1805C3.77677 12.931 3.17831 12.9539 2.73774 12.8622C2.51618 12.8164 2.32264 12.7349 2.22586 12.5491C2.13164 12.3632 2.14947 12.1086 2.28189 11.742C2.32518 11.6121 2.29208 11.4186 2.26152 11.2124C2.24624 11.1131 2.23096 11.0112 2.23096 10.9119C2.23096 10.8025 2.24878 10.6955 2.30226 10.5962C2.41686 10.3798 2.60277 10.2881 2.77339 10.227C2.94402 10.1659 3.09936 10.1252 3.20632 10.0157C3.33875 9.87568 3.46353 9.64908 3.62906 9.50141C3.56285 9.06348 3.63416 8.60009 3.78696 8.14434C4.10783 7.17938 4.78524 6.25515 5.26656 5.68228C5.67656 5.09923 5.79626 4.63075 5.83955 4.03496C5.86756 3.22531 5.21562 0.587567 7.82338 0.592659C9.88362 0.595205 9.76647 2.76701 9.75374 3.93567C9.7461 4.70204 10.1688 5.22144 10.6043 5.76885C10.9914 6.22714 11.4982 6.89676 11.7885 7.66314C12.0253 8.28947 12.117 8.98201 11.8827 9.67709C11.9184 9.68982 11.954 9.70764 11.9871 9.72801C12.0228 9.74838 12.0559 9.77384 12.089 9.80185C12.2571 9.94443 12.3106 10.1659 12.3564 10.3722C12.4048 10.5784 12.4481 10.7719 12.5398 10.8737C12.8224 11.1895 12.9447 11.4212 12.9345 11.6299ZM7.46685 3.37044C7.55853 3.39335 7.6935 3.43154 7.79792 3.48246C7.74444 3.17184 7.91252 2.88413 8.09842 2.89687C8.32507 2.9045 8.4524 3.29151 8.33017 3.59195C8.30979 3.64032 8.25886 3.67851 8.23085 3.70907C8.40147 3.76763 8.51098 3.81346 8.55172 3.83382C8.75291 3.59195 8.82676 3.16675 8.66123 2.80521C8.41166 2.26034 7.79028 2.25016 7.54071 2.81539C7.45921 2.99871 7.44139 3.19476 7.46685 3.37044ZM6.29031 3.8491C6.48894 3.70397 6.46602 3.72943 6.44056 3.70907C6.23683 3.53339 6.27248 3.01144 6.4864 2.99362C6.64683 2.98089 6.76143 3.26605 6.73087 3.49265C6.80982 3.43918 6.9015 3.40099 6.99063 3.37553C7.03392 2.88413 6.76143 2.52259 6.50422 2.52259C6.02291 2.52259 5.89303 3.47737 6.29031 3.8491ZM6.05092 4.38123C6.08912 4.50599 6.20627 4.64857 6.42528 4.77078C6.62392 4.8879 6.73087 5.06358 6.93461 5.1527C7.00082 5.1807 7.07976 5.20107 7.17908 5.20616C7.64767 5.23417 7.86922 4.91846 8.1519 4.8268C8.44986 4.73259 8.66377 4.54673 8.72999 4.36596C8.81148 4.14954 8.67651 3.99168 8.46259 3.90257C8.17482 3.77781 8.04749 3.77017 7.88705 3.66578C7.62475 3.49774 7.40828 3.43918 7.22747 3.43918C6.86075 3.43918 6.63665 3.6887 6.51696 3.80072C6.50422 3.81346 6.31577 3.95094 6.15788 4.06806C6.05092 4.15208 6.01527 4.25647 6.05092 4.38123ZM5.1978 10.8177L4.69865 9.91133C4.52548 9.67709 4.34722 9.53451 4.14094 9.50395C3.94485 9.4734 3.82006 9.5396 3.69018 9.67963C3.56794 9.80948 3.46608 9.9928 3.32601 10.1379C3.12738 10.3034 3.08918 10.2958 2.82687 10.39C2.66643 10.446 2.5391 10.5071 2.44997 10.6777C2.38121 10.805 2.39649 10.9883 2.42705 11.1869C2.45761 11.3881 2.50345 11.6019 2.44233 11.7954V11.8005C2.315 12.1493 2.315 12.353 2.37612 12.4727C2.5773 12.8648 3.56285 12.628 4.3243 13.0303C5.12394 13.4478 6.17316 13.4657 6.24192 12.572C6.2954 12.05 5.43973 11.3244 5.1978 10.8177ZM9.11708 11.7292C9.19857 11.4492 9.27752 11.1869 9.29025 10.9909C9.31062 10.6039 9.331 10.2601 9.4023 9.97498C9.48125 9.65417 9.63914 9.38683 9.94728 9.2799C10.0059 8.74267 10.4235 8.74267 10.9226 8.96164C11.404 9.17805 11.5848 9.36901 11.5033 9.62617C11.5287 9.62617 11.5542 9.62362 11.6102 9.62617C11.7427 9.19588 11.2461 8.91326 10.8284 8.74013C10.9023 8.4346 10.8895 8.12652 10.8182 7.83118C10.6654 7.18702 10.2427 6.61415 9.92182 6.32899C9.86324 6.32644 9.86834 6.37736 9.98803 6.49448C10.2834 6.76691 10.9328 7.74716 10.5814 8.65611C10.4821 8.63065 10.3879 8.61792 10.3038 8.62046C10.1688 7.87955 9.85815 7.26595 9.70281 6.97569C9.40994 6.43083 8.95155 5.3131 8.75545 4.53909C8.64086 4.70204 8.43967 4.84207 8.18755 4.921C8.06786 4.95919 7.94053 5.06104 7.78264 5.15015C7.42865 5.35384 7.01864 5.37421 6.70286 5.1196C6.58826 5.02794 6.49913 4.92609 6.38198 4.85735C6.34124 4.83444 6.25211 4.77333 6.22409 4.75296C6.17316 5.71538 5.52886 6.92477 5.22326 7.6224C5.01189 8.12398 4.88711 8.6612 4.87183 9.18824C4.31666 8.44733 4.72157 7.50019 4.93804 7.09027C5.17997 6.64216 5.21817 6.5174 5.1596 6.56068C4.94058 6.91713 4.59933 7.48491 4.46691 8.06796C4.39815 8.37095 4.38542 8.67902 4.47455 8.96418C4.56368 9.24934 4.75723 9.51159 5.10102 9.72546C5.10102 9.72546 5.73259 10.0896 6.07639 10.5529C6.26484 10.8075 6.32341 11.0291 6.26484 11.1869C6.20117 11.3575 6.02036 11.4135 5.83955 11.4135C5.96179 11.5663 6.10185 11.7445 6.20627 11.9125C7.1638 12.5669 8.29961 12.3123 9.11708 11.7292ZM12.4124 10.9934C12.1578 10.7057 12.2291 10.1507 11.977 9.93424C11.8012 9.78148 11.6306 9.79675 11.4014 9.80439C11.2053 10.0284 10.7444 10.3034 10.4235 10.2194C10.1306 10.1456 9.96511 9.80439 9.94474 9.46831C9.9371 9.4734 9.92691 9.47595 9.91927 9.48104C9.73846 9.58034 9.63659 9.75602 9.57038 10.0183C9.50671 10.278 9.48379 10.6166 9.46342 11.0036C9.44559 11.304 9.30553 11.6758 9.2113 12.0373C9.12217 12.3734 9.0636 12.6789 9.18329 12.9615C9.36665 13.3307 9.67989 13.4809 10.0415 13.4529C10.4031 13.4249 10.8157 13.2034 11.1518 12.8037C11.7121 12.1264 12.7384 12.0475 12.7613 11.6198C12.769 11.4899 12.6824 11.2888 12.4124 10.9934ZM6.2572 4.37869C6.30813 4.42706 6.37689 4.49326 6.46093 4.55946C6.62901 4.69185 6.8633 4.82934 7.15616 4.82934C7.45157 4.82934 7.72916 4.67912 7.966 4.55437C8.09078 4.48817 8.24358 4.37614 8.3429 4.28957C8.44222 4.20301 8.49315 4.12917 8.42184 4.12153C8.35054 4.11389 8.35563 4.18773 8.26905 4.25138C8.15699 4.33286 8.02202 4.43979 7.91506 4.5009C7.72661 4.60783 7.41847 4.7606 7.15362 4.7606C6.88877 4.7606 6.67739 4.63839 6.5195 4.51363C6.44056 4.44998 6.37434 4.38632 6.32341 4.33795C6.28521 4.3023 6.27503 4.22083 6.21391 4.21319C6.17825 4.21064 6.16807 4.3074 6.2572 4.37869Z" fill="#B645EE"/>
</svg>
