<svg width="80" height="80" viewBox="0 0 80 80" fill="none" xmlns="http://www.w3.org/2000/svg">
<path opacity="0.4" d="M36.5334 6.86661L18.2 13.7333C14.7 15.0666 11.8334 19.1999 11.8334 22.9666V49.9666C11.8334 52.6666 13.6 56.2333 15.7667 57.8333L34.1 71.5333C37.3334 73.9666 42.6334 73.9666 45.8667 71.5333L64.2 57.8333C66.3667 56.1999 68.1334 52.6666 68.1334 49.9666V22.9666C68.1334 19.2333 65.2667 15.0666 61.7667 13.7666L43.4334 6.89994C41.5667 6.16661 38.4334 6.16661 36.5334 6.86661Z" fill="url(#paint0_linear_4290_2331)"/>
<path d="M35.5334 47.4334C34.9 47.4334 34.2667 47.2001 33.7667 46.7001L28.4 41.3334C27.4334 40.3667 27.4334 38.7667 28.4 37.8001C29.3667 36.8334 30.9667 36.8334 31.9334 37.8001L35.5334 41.4001L48.1 28.8334C49.0667 27.8667 50.6667 27.8667 51.6334 28.8334C52.6 29.8001 52.6 31.4001 51.6334 32.3667L37.3 46.7001C36.8 47.2001 36.1667 47.4334 35.5334 47.4334Z" fill="url(#paint1_linear_4290_2331)"/>
<defs>
<linearGradient id="paint0_linear_4290_2331" x1="11.8334" y1="8.27816" x2="73.1956" y2="70.2808" gradientUnits="userSpaceOnUse">
<stop stop-color="#C427E6"/>
<stop offset="0.786923" stop-color="#AD37F6"/>
<stop offset="1" stop-color="#923DF3"/>
</linearGradient>
<linearGradient id="paint1_linear_4290_2331" x1="27.675" y1="28.6657" x2="43.8574" y2="53.5246" gradientUnits="userSpaceOnUse">
<stop stop-color="#C427E6"/>
<stop offset="0.786923" stop-color="#AD37F6"/>
<stop offset="1" stop-color="#923DF3"/>
</linearGradient>
</defs>
</svg>
