<svg width="146" height="24" viewBox="0 0 146 24" fill="none" xmlns="http://www.w3.org/2000/svg">
<path d="M34.0618 5.64233H38.2397C40.2377 5.64233 41.7514 6.14825 42.7808 7.15889C43.8099 8.17049 44.3247 9.61457 44.3247 11.4911V12.5083C44.3247 14.3611 43.8039 15.7996 42.7623 16.8225C41.7207 17.8459 40.2132 18.3575 38.2397 18.3575H34.0618V5.64233ZM36.2415 7.56761V16.4318H38.2397C39.499 16.4318 40.4465 16.1109 41.0823 15.4694C41.7183 14.8274 42.0358 13.8405 42.0358 12.5083V11.4911C42.0358 10.1719 41.7149 9.18761 41.0731 8.53937C40.4314 7.89209 39.4865 7.56761 38.2395 7.56761H36.2415Z" fill="#333333"/>
<path d="M50.1369 18.5213C48.7684 18.5213 47.6999 18.1337 46.9309 17.3587C46.1617 16.5837 45.7777 15.4997 45.7777 14.1072V13.5257C45.7777 12.8354 45.8776 12.2181 46.0772 11.6729C46.2769 11.1281 46.5678 10.6649 46.9491 10.2835C47.3305 9.90213 47.7877 9.61149 48.3205 9.41157C48.8531 9.21189 49.4586 9.11157 50.1369 9.11157C51.5053 9.11157 52.5738 9.49965 53.343 10.2741C54.1119 11.0491 54.4967 12.1332 54.4967 13.5257V14.1072C54.4967 14.7974 54.3968 15.4147 54.1969 15.96C53.997 16.5048 53.7066 16.968 53.325 17.3493C52.9434 17.7307 52.4831 18.0213 51.9443 18.2213C51.4055 18.4207 50.8029 18.5213 50.1369 18.5213ZM50.1369 16.559C50.8271 16.559 51.357 16.3593 51.7264 15.9597C52.0957 15.5599 52.2805 14.9426 52.2805 14.1069V13.5254C52.2805 12.7022 52.0895 12.0876 51.7084 11.682C51.327 11.2764 50.8028 11.0736 50.1371 11.0736C49.4468 11.0736 48.9171 11.2733 48.5478 11.6729C48.1782 12.0727 47.9939 12.69 47.9939 13.5257V14.1072C47.9939 14.9304 48.1842 15.545 48.5658 15.9506C48.9474 16.3562 49.4711 16.559 50.1369 16.559Z" fill="#333333"/>
<path d="M57.0846 17.5857C56.5698 17.0709 56.3125 16.3295 56.3125 15.3604V5.64233H58.4195V15.1425C58.4195 15.6143 58.5224 15.9599 58.7283 16.1779C58.9343 16.3958 59.2489 16.505 59.673 16.505H60.1271V18.3578H59.2914C58.3347 18.3575 57.5991 18.1 57.0846 17.5857Z" fill="#333333"/>
<path d="M66.2486 18.5212C65.11 18.5212 64.2261 18.1636 63.5963 17.4492V21.9904H61.4894V9.27501H63.1423L63.3422 10.5105C63.6568 10.0382 64.0595 9.68685 64.5498 9.45645C65.0404 9.22677 65.6063 9.11133 66.2486 9.11133C66.7691 9.11133 67.2503 9.20541 67.6926 9.39285C68.1345 9.58125 68.5127 9.85965 68.8278 10.2285C69.1425 10.5984 69.3909 11.0584 69.5723 11.6095C69.754 12.1605 69.845 12.7989 69.845 13.5254V14.1069C69.845 14.8334 69.754 15.4692 69.5723 16.0142C69.3906 16.559 69.1394 17.0196 68.8185 17.3947C68.4976 17.7703 68.1194 18.0518 67.6833 18.239C67.2475 18.4269 66.7691 18.5212 66.2486 18.5212ZM65.6126 16.559C66.2541 16.559 66.7509 16.3656 67.1023 15.978C67.4531 15.5904 67.629 14.9668 67.629 14.1069V13.5254C67.629 12.6897 67.4474 12.0724 67.0842 11.6726C66.7209 11.2732 66.2306 11.0733 65.6128 11.0733C65.0318 11.0733 64.5563 11.273 64.1867 11.6726C63.8174 12.0724 63.6206 12.6537 63.5963 13.4167V14.1069C63.5963 14.9059 63.7874 15.5143 64.1685 15.9324C64.5499 16.3502 65.0315 16.559 65.6126 16.559Z" fill="#333333"/>
<path d="M71.6616 5.64233H73.7688V10.0564C74.3741 9.42665 75.2156 9.11153 76.2936 9.11153C77.4077 9.11153 78.2763 9.44153 78.9 10.1018C79.5238 10.762 79.8355 11.7575 79.8355 13.0898V18.3575H77.7286V13.0898C77.7286 12.4238 77.568 11.921 77.2472 11.5821C76.926 11.2432 76.4871 11.0735 75.9303 11.0735C75.2763 11.0735 74.7586 11.249 74.3772 11.6003C73.9956 11.9517 73.7926 12.4178 73.7688 12.9988V18.3575H71.6616V5.64233Z" fill="#333333"/>
<path d="M83.2502 8.18541C82.8626 8.18541 82.5388 8.05557 82.2784 7.79469C82.0175 7.53453 81.8877 7.21053 81.8877 6.82293C81.8877 6.43533 82.0175 6.11157 82.2784 5.85117C82.5386 5.59101 82.8626 5.46045 83.2502 5.46045C83.6253 5.46045 83.9466 5.59077 84.213 5.85117C84.479 6.11133 84.6124 6.43533 84.6124 6.82293C84.6124 7.21053 84.479 7.53429 84.213 7.79469C83.9466 8.05557 83.6253 8.18541 83.2502 8.18541ZM82.1966 9.27501H84.3035V18.3576H82.1966V9.27501Z" fill="#333333"/>
<path d="M86.756 9.27501H88.4086L88.5721 10.2921C89.2498 9.50517 90.1884 9.11133 91.3877 9.11133C92.5011 9.11133 93.3704 9.44133 93.9939 10.1016C94.6174 10.7618 94.9294 11.7573 94.9294 13.0896V18.3576H92.8225V13.0898C92.8225 12.4238 92.6614 11.921 92.3408 11.5821C92.0199 11.2432 91.5812 11.0736 91.0246 11.0736C90.3706 11.0736 89.8527 11.249 89.4713 11.6004C89.0895 11.9517 88.8867 12.4178 88.8629 12.9988V18.3576H86.756V9.27501Z" fill="#333333"/>
<path d="M102.559 6.80489H101.723C100.343 6.80489 99.6525 7.53137 99.6525 8.98481V11.3457C99.6525 11.891 99.5706 12.3784 99.4072 12.808C99.2437 13.2386 98.883 13.5743 98.3262 13.8165C98.6046 13.9499 98.8317 14.1011 99.0071 14.2708C99.183 14.4405 99.3191 14.6308 99.4158 14.8425C99.5132 15.0546 99.5762 15.2817 99.6069 15.5238C99.6369 15.766 99.6525 16.0206 99.6525 16.2866V18.6479C99.6525 20.1014 100.343 20.8278 101.723 20.8278H102.559V21.9904H101.723C99.4948 21.9904 98.3807 20.8758 98.3807 18.6479V16.2863C98.3807 15.6448 98.2384 15.1816 97.9538 14.897C97.6691 14.6123 97.3271 14.44 96.9277 14.379V13.2532C97.3271 13.1927 97.6691 13.0199 97.9538 12.7353C98.2384 12.4506 98.3807 11.9877 98.3807 11.3454V8.98457C98.3807 6.75665 99.4948 5.64209 101.723 5.64209H102.559V6.80489Z" fill="#333333"/>
<path d="M107.009 18.4844C106.101 18.4844 105.404 18.2516 104.92 17.7853C104.435 17.3192 104.193 16.6744 104.193 15.8507C104.193 15.4146 104.263 15.0181 104.402 14.6605C104.541 14.3034 104.765 14.0039 105.074 13.7617C105.383 13.5196 105.779 13.3316 106.264 13.1982C106.748 13.0652 107.33 12.9985 108.008 12.9985H110.079V12.1811C110.079 11.5276 109.917 11.0459 109.597 10.737C109.276 10.4286 108.746 10.2738 108.008 10.2738C107.341 10.2738 106.842 10.4041 106.509 10.6645C106.176 10.9254 105.985 11.2792 105.937 11.7272H104.647C104.671 11.3516 104.756 11.007 104.901 10.6919C105.047 10.3768 105.258 10.1046 105.537 9.87443C105.816 9.64427 106.161 9.46571 106.573 9.33851C106.984 9.21179 107.463 9.14819 108.008 9.14819C109.085 9.14819 109.899 9.41459 110.451 9.94715C111.002 10.4802 111.277 11.2252 111.277 12.1813V18.3575H110.351L110.169 16.6501C109.854 17.2312 109.421 17.6824 108.87 18.0032C108.32 18.3239 107.699 18.4844 107.009 18.4844ZM107.1 17.3584C107.512 17.3584 107.899 17.2828 108.262 17.1313C108.625 16.9801 108.944 16.7742 109.216 16.5136C109.488 16.2534 109.7 15.9505 109.852 15.6054C110.003 15.2603 110.079 14.894 110.079 14.5064V14.0888H108.008C107.075 14.0888 106.413 14.2523 106.019 14.5789C105.626 14.906 105.429 15.3301 105.429 15.8507C105.429 16.3108 105.571 16.677 105.856 16.9496C106.14 17.2218 106.555 17.3584 107.1 17.3584Z" fill="#333333"/>
<path d="M114.274 9.27491H115.201L115.346 10.7646C115.649 10.244 116.057 9.84467 116.572 9.56579C117.086 9.28739 117.683 9.14819 118.361 9.14819C119.402 9.14819 120.223 9.46331 120.822 10.0924C121.422 10.7221 121.721 11.6605 121.721 12.908V18.3575H120.523V12.9083C120.523 12.0246 120.317 11.3644 119.905 10.928C119.493 10.492 118.918 10.274 118.18 10.274C117.38 10.274 116.736 10.5042 116.245 10.9643C115.754 11.4248 115.497 12.0359 115.473 12.7991V18.3575H114.274V9.27491H114.274Z" fill="#333333"/>
<path d="M123.448 9.27498H125.083V6.73242H126.281V9.27498H128.715V10.3651H126.281V15.8145C126.281 16.7831 126.729 17.2675 127.626 17.2675H128.897V18.3575H127.48C126.693 18.3575 126.097 18.1547 125.691 17.7491C125.285 17.3435 125.083 16.7469 125.083 15.9599V10.3653H123.448V9.27498Z" fill="#333333"/>
<path d="M134.11 18.3577L130.349 9.27515H131.694L134.764 16.868L137.615 9.27515H138.887L133.982 21.9906H132.711L134.11 18.3577Z" fill="#333333"/>
<path d="M140.049 20.8276H140.885C142.265 20.8276 142.956 20.1011 142.956 18.6477V16.2863C142.956 15.7415 143.037 15.2541 143.2 14.824C143.364 14.3947 143.724 14.0582 144.281 13.816C144.002 13.6831 143.776 13.5314 143.6 13.3617C143.425 13.1925 143.288 13.0017 143.192 12.7895C143.095 12.5779 143.031 12.3508 143.001 12.1087C142.971 11.8665 142.956 11.6126 142.956 11.3455V8.98457C142.956 7.53113 142.266 6.80465 140.885 6.80465H140.049V5.64233H140.885C143.113 5.64233 144.227 6.75689 144.227 8.98481V11.3457C144.227 11.9877 144.369 12.4514 144.654 12.736C144.938 13.0202 145.281 13.193 145.68 13.2535V14.3793C145.281 14.4403 144.938 14.6126 144.654 14.8972C144.369 15.1814 144.227 15.6448 144.227 16.2866V18.6479C144.227 20.8759 143.113 21.9904 140.885 21.9904H140.049V20.8276H140.049Z" fill="#333333"/>
<path d="M12.3201 0C0.320068 0 0.320068 0 0.320068 12C0.320068 24 0.320068 24 12.3201 24C24.3201 24 24.3201 24 24.3201 12C24.3201 0 24.3201 0 12.3201 0ZM17.2513 12.5146C17.2513 14.3614 16.7291 15.7992 15.6849 16.8283C14.6478 17.8502 13.1418 18.3576 11.1664 18.3576H7.82895C8.70662 17.9791 9.14561 17.1617 9.14561 15.9053V13.998C9.14561 13.4758 9.25911 13.1047 9.48639 12.8705C9.72111 12.6432 9.99351 12.5069 10.3187 12.4541V11.5462C9.99351 11.4929 9.72111 11.357 9.48639 11.1298C9.25911 10.895 9.14561 10.5245 9.14561 10.0022V8.09448C9.14561 6.83832 8.70662 6.02088 7.82895 5.6424H11.1664C13.1646 5.6424 14.6783 6.14952 15.7074 7.16376C16.737 8.17008 17.2513 9.61584 17.2513 11.4926V12.5146Z" fill="#B645EE"/>
</svg>
