<svg width="31" height="30" viewBox="0 0 31 30" fill="none" xmlns="http://www.w3.org/2000/svg">
<rect x="0.981445" width="30" height="30" rx="15" fill="#F0DAFC"/>
<path d="M14.1362 21.5625C19.7965 21.5625 22.8925 16.8731 22.8925 12.8066C22.8925 12.6734 22.8925 12.5408 22.8836 12.4082C23.4858 11.9728 24.0057 11.4336 24.4189 10.8159C23.8573 11.0648 23.2614 11.228 22.6513 11.3001C23.2938 10.9156 23.7746 10.3107 24.0043 9.59807C23.4002 9.95651 22.7393 10.2091 22.0501 10.345C21.5861 9.85164 20.9724 9.52496 20.304 9.4155C19.6357 9.30604 18.9498 9.41991 18.3527 9.73948C17.7555 10.059 17.2804 10.5665 17.0007 11.1833C16.721 11.8001 16.6524 12.4919 16.8056 13.1516C15.582 13.0903 14.385 12.7724 13.2923 12.2184C12.1997 11.6645 11.2357 10.887 10.463 9.93638C10.0694 10.6138 9.94888 11.4158 10.1259 12.179C10.3029 12.9422 10.7641 13.6092 11.4157 14.0443C10.926 14.0298 10.4469 13.8977 10.0189 13.6592V13.6981C10.0191 14.4086 10.2651 15.0972 10.7151 15.647C11.1651 16.1968 11.7915 16.5741 12.488 16.7148C12.0349 16.8383 11.5595 16.8564 11.0984 16.7676C11.295 17.379 11.6779 17.9138 12.1934 18.2969C12.7089 18.6801 13.3313 18.8926 13.9736 18.9047C12.8838 19.7611 11.5376 20.226 10.1515 20.2246C9.90669 20.2241 9.66207 20.2093 9.41895 20.1802C10.8263 21.0833 12.4639 21.5623 14.1362 21.5601" fill="#B645EE"/>
</svg>
